<svg xmlns="http://www.w3.org/2000/svg" xmlns:xlink="http://www.w3.org/1999/xlink" version="1.1" x="0px" y="0px" viewBox="0 0 100 125" style="enable-background:new 0 0 100 100;" xml:space="preserve"><g><path d="M84.4,14.2H15.6c-6.1,0-11,4.9-11,11v8.4v41.2c0,6.1,4.9,11,11,11h68.8c6.1,0,11-4.9,11-11V33.6v-8.4   C95.4,19.2,90.5,14.2,84.4,14.2z M91.4,74.8c0,3.9-3.1,7-7,7H15.6c-3.9,0-7-3.1-7-7V33.6h82.8V74.8z M91.4,29.6H8.6v-4.4   c0-3.9,3.1-7,7-7h68.8c3.9,0,7,3.1,7,7V29.6z"/><circle cx="14.7" cy="24" r="3.4"/><circle cx="25" cy="24" r="3.4"/><circle cx="35.4" cy="24" r="3.4"/><path d="M18.7,70.9c0.4,0.4,0.9,0.6,1.4,0.6s1-0.2,1.4-0.6l12.8-12.8c0.4-0.4,0.6-0.9,0.6-1.4s-0.2-1-0.6-1.4L21.5,42.5   c-0.8-0.8-2-0.8-2.8,0c-0.8,0.8-0.8,2,0,2.8L30,56.7L18.7,68.1C17.9,68.9,17.9,70.1,18.7,70.9z"/><path d="M42.8,58.7H63c1.1,0,2-0.9,2-2s-0.9-2-2-2H42.8c-1.1,0-2,0.9-2,2S41.7,58.7,42.8,58.7z"/></g></svg>